<?xml version="1.0" encoding="UTF-8"?>
<svg version="1.1" xmlns="http://www.w3.org/2000/svg" width="512" height="512">
<path d="M0 0 C1.19506668 -0.01268417 2.39013336 -0.02536835 3.62141418 -0.03843689 C5.5465107 -0.03403343 5.5465107 -0.03403343 7.51049805 -0.02954102 C8.85182458 -0.03410717 10.19314877 -0.03941403 11.5344696 -0.04542542 C14.34290073 -0.05434572 17.15104736 -0.05194768 19.95947266 -0.04199219 C23.54051825 -0.03052878 27.12057386 -0.05067735 30.70148945 -0.07990932 C33.47181843 -0.09835263 36.24191401 -0.09796245 39.01228905 -0.0922718 C40.96861842 -0.09204585 42.92492608 -0.10887827 44.88117981 -0.12608337 C53.55580527 -0.05852449 59.00091585 0.98508828 65.7097168 6.77905273 C71.78960474 13.87225533 74.10952469 21.18724821 76.9597168 29.99389648 C79.46747139 38.93845488 79.46747139 38.93845488 85.64347178 45.28855669 C92.84876996 47.91063 99.90577441 47.81684234 107.48985291 47.76913452 C108.95892461 47.77099527 110.42799512 47.77418655 111.89706141 47.77858603 C115.91646492 47.7868908 119.93563883 47.77671069 123.95502126 47.76349735 C128.29661364 47.75256033 132.63818328 47.75906519 136.9797821 47.7636261 C144.49833966 47.76936537 152.01683268 47.76475341 159.53538322 47.75361252 C170.41675912 47.73794149 181.29804833 47.74353046 192.17942555 47.75522895 C209.84927261 47.77411359 227.51910787 47.78334114 245.18896484 47.78295898 C246.24591108 47.78294154 247.30285733 47.7829241 248.39183224 47.78290613 C260.18442104 47.7824539 271.97700559 47.77912521 283.76959229 47.77203369 C284.82984942 47.77140131 285.89010655 47.77076893 286.98249269 47.77011738 C288.04169587 47.76948481 289.10089905 47.76885225 290.19219929 47.76820052 C292.32816541 47.76693075 294.46413153 47.76566534 296.60009766 47.7644043 C298.18312548 47.76346201 298.18312548 47.76346201 299.79813366 47.76250069 C317.40182846 47.75254341 335.00545291 47.76187833 352.60913283 47.78658831 C363.46174606 47.80101492 374.31411156 47.79896031 385.1667105 47.77562632 C392.60344646 47.76087013 400.04003729 47.76403983 407.47676747 47.78125523 C411.76570292 47.79058532 416.05423535 47.79176305 420.34313965 47.7710247 C424.27323241 47.75216975 428.20260847 47.75649448 432.13267655 47.7788523 C433.5504786 47.78287153 434.96833577 47.77852185 436.38607632 47.76471834 C445.83958437 47.67872042 453.56198547 48.63906163 460.8600716 55.08164155 C466.80279256 61.1607035 468.30855628 68.82800235 468.22122192 77.07948303 C468.18845657 78.44864113 468.18845657 78.44864113 468.1550293 79.84545898 C468.14806333 81.83047964 468.14290949 83.81550733 468.1394043 85.80053711 C468.11875443 88.89088773 468.08444786 91.97911658 468.01831055 95.06884766 C467.28204907 106.69205944 467.28204907 106.69205944 470.88061523 117.3059082 C473.16249156 119.34085816 473.16249156 119.34085816 475.63110352 120.66162109 C479.65458267 123.67227015 481.58758585 127.89741914 482.32242966 132.84724712 C482.45660654 135.84194638 482.4365572 138.80380239 482.37158203 141.80102539 C482.35778472 143.02900156 482.34398741 144.25697773 482.329772 145.5221653 C482.00686678 167.32367958 480.73033422 189.12224891 479.66896215 210.89669677 C479.33105259 217.83361904 479.00099734 224.77090944 478.67118912 231.70822079 C478.08218802 244.09277537 477.4869022 256.47701933 476.88769531 268.86108398 C476.30852403 280.83127332 475.73307885 292.80163336 475.16210938 304.7722168 C475.12683083 305.51182665 475.09155229 306.2514365 475.0552047 307.01345877 C474.91333167 309.98799587 474.77146825 312.96253342 474.62962145 315.93707176 C474.01579599 328.80699298 473.39885533 341.67676513 472.78155956 354.54652029 C472.68240245 356.61437703 472.58332111 358.68223738 472.48425984 360.75009871 C472.10784059 368.60627923 471.72986991 376.46238308 471.3496418 384.31838036 C471.2350961 386.68899093 471.12100761 389.05962366 471.00742722 391.43028069 C470.02380448 411.94683968 470.02380448 411.94683968 469.45799255 421.12075806 C469.38992118 422.23415873 469.3218498 423.34755939 469.25171566 424.49469948 C468.46839334 432.29939199 465.84240021 438.17644794 459.9597168 443.40405273 C451.40355591 449.70680126 441.9273398 449.10761554 431.81665039 449.03897095 C429.96722841 449.0447369 428.11781216 449.0526812 426.26840782 449.06260717 C421.20224551 449.08343851 416.13655544 449.0731821 411.07039165 449.05767608 C405.60062686 449.04635136 400.13094259 449.06383087 394.66119385 449.07757568 C383.95224631 449.09980057 373.24347406 449.09501017 362.53451967 449.08051248 C353.83059533 449.06921733 345.12672009 449.06769055 336.42279053 449.07313156 C334.56411097 449.07428081 334.56411097 449.07428081 332.66788232 449.07545327 C330.15057896 449.07705191 327.63327561 449.07867298 325.11597228 449.08031623 C302.18780373 449.09416522 279.25971176 449.07980699 256.33156118 449.05360324 C235.41133792 449.02987607 214.49126685 449.03199925 193.57104492 449.0559082 C170.05423366 449.08269502 146.53748937 449.09319826 123.02066231 449.07784688 C120.51265591 449.07625415 118.00464949 449.0746823 115.49664307 449.07313156 C114.26267866 449.07236018 113.02871426 449.07158881 111.757357 449.07079405 C103.0645966 449.06647821 94.37189022 449.07376115 85.67913818 449.08552933 C75.08453403 449.09955703 64.49011509 449.09574851 53.89553213 449.06912561 C48.49070893 449.05599126 43.08619446 449.05082882 37.6813736 449.06737137 C32.73176882 449.08229144 27.78275838 449.07404843 22.83320737 449.04748361 C21.04465167 449.04190742 19.25604556 449.04471971 17.46752238 449.05686255 C6.76681039 449.12392898 -2.16126754 448.73662143 -10.4777832 441.19311523 C-10.9934082 440.47897461 -11.5090332 439.76483398 -12.0402832 439.02905273 C-12.8446582 437.96557617 -12.8446582 437.96557617 -13.6652832 436.88061523 C-17.00000385 430.87432861 -17.41012903 424.72455194 -17.70947266 418.00244141 C-17.75896498 417.04097765 -17.8084573 416.07951389 -17.85944939 415.08891487 C-18.02799868 411.77113332 -18.18443507 408.45288584 -18.34106445 405.13452148 C-18.46364908 402.66420816 -18.58691359 400.1939285 -18.71076965 397.72367859 C-18.99690752 391.97754805 -19.27716997 386.23116659 -19.55352783 380.48455811 C-19.89919249 373.29913354 -20.2503885 366.11399658 -20.60516357 358.92901611 C-20.65446624 357.93036297 -20.70376891 356.93170984 -20.7545656 355.90279448 C-20.85671697 353.83375785 -20.95886897 351.76472124 -21.06102157 349.69568467 C-22.12270762 328.17808063 -23.16556308 306.65959798 -24.19787407 285.14056587 C-24.8294433 271.97746938 -25.46582029 258.81462527 -26.10873717 245.65207797 C-26.56821506 236.2367664 -27.02209106 226.82119435 -27.47196466 217.40541905 C-27.73777231 211.84505894 -28.00581662 206.28483127 -28.28001976 200.72487831 C-30.21033856 161.50629481 -30.21033856 161.50629481 -30.42041016 142.97509766 C-30.44609416 141.79036771 -30.47177816 140.60563776 -30.49824047 139.3850069 C-30.50973191 132.9481912 -30.06989758 127.64115693 -26.0402832 122.40405273 C-23.71331787 120.68249512 -23.71331787 120.68249512 -21.34790039 119.34350586 C-17.90338155 116.4212154 -16.76136163 114.1580295 -16.24694824 109.77685547 C-15.86327311 103.64297812 -16.00480049 97.51354064 -16.1184082 91.37280273 C-16.12545752 89.09412583 -16.127806 86.81542997 -16.12567139 84.53674316 C-16.12936807 78.54854935 -16.18237285 72.56193269 -16.25018311 66.57415771 C-16.35488287 56.99165938 -16.40428666 47.40933869 -16.41640472 37.8263092 C-16.43068875 34.4866117 -16.47801683 31.14852632 -16.52838135 27.8092041 C-16.53909516 25.75293565 -16.54865719 23.69666076 -16.55688477 21.64038086 C-16.57964981 20.71858536 -16.60241486 19.79678986 -16.62586975 18.84706116 C-16.60918998 12.51386608 -15.22654717 8.23296135 -11.0402832 3.40405273 C-7.3963459 0.44885541 -4.63186811 0.02386999 0 0 Z " fill="#01C0F9" transform="translate(30.040283203125,31.595947265625)"/>
<path d="M0 0 C1.54734136 1.30580515 3.08945224 2.61784647 4.625 3.9375 C5.28628906 4.45441406 5.94757813 4.97132813 6.62890625 5.50390625 C22.43423381 18.24395816 34.53271126 38.89642033 37.5625 58.9375 C38.52873333 62.80243332 39.3385993 63.7465662 42.71875 66 C44.65084409 67.01533128 46.60521108 67.9575 48.58178711 68.88305664 C63.46882312 75.92467992 73.97428594 89.73194215 79.625 104.9375 C84.5122355 121.84072052 83.22746163 137.6921947 75.34765625 153.5 C67.16138241 168.01306165 55.13563162 178.08316182 39.625 183.9375 C38.96853391 184.19318284 38.31206781 184.44886568 37.63570881 184.71229649 C27.6234991 188.02921613 17.17657812 187.36580013 6.76049805 187.34155273 C4.54516252 187.3472615 2.32982994 187.35422771 0.11450195 187.36235046 C-5.87943984 187.38024235 -11.87323492 187.37912075 -17.86719537 187.37340808 C-22.88183074 187.37031004 -27.89643818 187.37641563 -32.91106957 187.38244683 C-45.42335704 187.39727886 -57.93557398 187.39368967 -70.44785639 187.38158352 C-81.28536303 187.37165728 -92.12269878 187.38458578 -102.96017907 187.40851771 C-114.11834777 187.43296997 -125.27645471 187.44210275 -136.43465394 187.43586498 C-142.68699715 187.43250337 -148.93919928 187.43485744 -155.1915226 187.45211601 C-161.0743248 187.46764679 -166.95680232 187.46356154 -172.83959198 187.44481087 C-174.98970925 187.44114175 -177.1398509 187.44418408 -179.2899456 187.45469666 C-200.12328089 187.54872438 -217.11993559 184.13176416 -232.51171875 168.984375 C-246.53264311 154.47058252 -250.912449 138.14714938 -250.65234375 118.515625 C-250.42479099 111.75470409 -249.13830015 106.15709094 -246.375 99.9375 C-245.97410156 99.01195312 -245.57320313 98.08640625 -245.16015625 97.1328125 C-238.1713212 82.83102252 -225.74593683 72.3530968 -211.375 65.9375 C-210.715 65.9375 -210.055 65.9375 -209.375 65.9375 C-209.42140625 65.27105469 -209.4678125 64.60460937 -209.515625 63.91796875 C-210.02314897 50.95798173 -204.79149515 40.74747758 -196.25 31.25 C-188.43419654 23.73210834 -178.75508908 20.75805605 -168.25 20.75 C-167.43273437 20.73775391 -166.61546875 20.72550781 -165.7734375 20.71289062 C-160.06225532 20.6993356 -154.89163135 21.47154783 -149.375 22.9375 C-148.62476563 22.03128906 -147.87453125 21.12507813 -147.1015625 20.19140625 C-110.65196489 -23.4172908 -46.58110188 -36.71102084 0 0 Z " fill="#ECF9FE" transform="translate(340.375,229.0625)"/>
<path d="M0 0 C1.19506668 -0.01268417 2.39013336 -0.02536835 3.62141418 -0.03843689 C5.5465107 -0.03403343 5.5465107 -0.03403343 7.51049805 -0.02954102 C8.85182458 -0.03410717 10.19314877 -0.03941403 11.5344696 -0.04542542 C14.34290073 -0.05434572 17.15104736 -0.05194768 19.95947266 -0.04199219 C23.54051825 -0.03052878 27.12057386 -0.05067735 30.70148945 -0.07990932 C33.47181843 -0.09835263 36.24191401 -0.09796245 39.01228905 -0.0922718 C40.96861842 -0.09204585 42.92492608 -0.10887827 44.88117981 -0.12608337 C53.55580527 -0.05852449 59.00091585 0.98508828 65.7097168 6.77905273 C71.78960474 13.87225533 74.10952469 21.18724821 76.9597168 29.99389648 C79.46747139 38.93845488 79.46747139 38.93845488 85.64347178 45.28855669 C92.84876996 47.91063 99.90577441 47.81684234 107.48985291 47.76913452 C108.95892461 47.77099527 110.42799512 47.77418655 111.89706141 47.77858603 C115.91646492 47.7868908 119.93563883 47.77671069 123.95502126 47.76349735 C128.29661364 47.75256033 132.63818328 47.75906519 136.9797821 47.7636261 C144.49833966 47.76936537 152.01683268 47.76475341 159.53538322 47.75361252 C170.41675912 47.73794149 181.29804833 47.74353046 192.17942555 47.75522895 C209.84927261 47.77411359 227.51910787 47.78334114 245.18896484 47.78295898 C246.24591108 47.78294154 247.30285733 47.7829241 248.39183224 47.78290613 C260.18442104 47.7824539 271.97700559 47.77912521 283.76959229 47.77203369 C284.82984942 47.77140131 285.89010655 47.77076893 286.98249269 47.77011738 C288.04169587 47.76948481 289.10089905 47.76885225 290.19219929 47.76820052 C292.32816541 47.76693075 294.46413153 47.76566534 296.60009766 47.7644043 C298.18312548 47.76346201 298.18312548 47.76346201 299.79813366 47.76250069 C317.40182846 47.75254341 335.00545291 47.76187833 352.60913283 47.78658831 C363.46174606 47.80101492 374.31411156 47.79896031 385.1667105 47.77562632 C392.60344646 47.76087013 400.04003729 47.76403983 407.47676747 47.78125523 C411.76570292 47.79058532 416.05423535 47.79176305 420.34313965 47.7710247 C424.27323241 47.75216975 428.20260847 47.75649448 432.13267655 47.7788523 C433.5504786 47.78287153 434.96833577 47.77852185 436.38607632 47.76471834 C445.83958437 47.67872042 453.56198547 48.63906163 460.8600716 55.08164155 C466.80279256 61.1607035 468.30855628 68.82800235 468.22122192 77.07948303 C468.18845657 78.44864113 468.18845657 78.44864113 468.1550293 79.84545898 C468.14806333 81.83047964 468.14290949 83.81550733 468.1394043 85.80053711 C468.11875443 88.89088773 468.08444786 91.97911658 468.01831055 95.06884766 C467.28204907 106.69205944 467.28204907 106.69205944 470.88061523 117.3059082 C473.16249156 119.34085816 473.16249156 119.34085816 475.63110352 120.66162109 C479.65458267 123.67227015 481.58758585 127.89741914 482.32242966 132.84724712 C482.45660654 135.84194638 482.4365572 138.80380239 482.37158203 141.80102539 C482.35778472 143.02900156 482.34398741 144.25697773 482.329772 145.5221653 C482.00686678 167.32367958 480.73033422 189.12224891 479.66896215 210.89669677 C479.33105259 217.83361904 479.00099734 224.77090944 478.67118912 231.70822079 C478.08218802 244.09277537 477.4869022 256.47701933 476.88769531 268.86108398 C476.30852403 280.83127332 475.73307885 292.80163336 475.16210938 304.7722168 C475.12683083 305.51182665 475.09155229 306.2514365 475.0552047 307.01345877 C474.91333167 309.98799587 474.77146825 312.96253342 474.62962145 315.93707176 C474.01579599 328.80699298 473.39885533 341.67676513 472.78155956 354.54652029 C472.68240245 356.61437703 472.58332111 358.68223738 472.48425984 360.75009871 C472.10784059 368.60627923 471.72986991 376.46238308 471.3496418 384.31838036 C471.2350961 386.68899093 471.12100761 389.05962366 471.00742722 391.43028069 C470.02380448 411.94683968 470.02380448 411.94683968 469.45799255 421.12075806 C469.38992118 422.23415873 469.3218498 423.34755939 469.25171566 424.49469948 C468.46839334 432.29939199 465.84240021 438.17644794 459.9597168 443.40405273 C451.40355591 449.70680126 441.9273398 449.10761554 431.81665039 449.03897095 C429.96722841 449.0447369 428.11781216 449.0526812 426.26840782 449.06260717 C421.20224551 449.08343851 416.13655544 449.0731821 411.07039165 449.05767608 C405.60062686 449.04635136 400.13094259 449.06383087 394.66119385 449.07757568 C383.95224631 449.09980057 373.24347406 449.09501017 362.53451967 449.08051248 C353.83059533 449.06921733 345.12672009 449.06769055 336.42279053 449.07313156 C334.56411097 449.07428081 334.56411097 449.07428081 332.66788232 449.07545327 C330.15057896 449.07705191 327.63327561 449.07867298 325.11597228 449.08031623 C302.18780373 449.09416522 279.25971176 449.07980699 256.33156118 449.05360324 C235.41133792 449.02987607 214.49126685 449.03199925 193.57104492 449.0559082 C170.05423366 449.08269502 146.53748937 449.09319826 123.02066231 449.07784688 C120.51265591 449.07625415 118.00464949 449.0746823 115.49664307 449.07313156 C114.26267866 449.07236018 113.02871426 449.07158881 111.757357 449.07079405 C103.0645966 449.06647821 94.37189022 449.07376115 85.67913818 449.08552933 C75.08453403 449.09955703 64.49011509 449.09574851 53.89553213 449.06912561 C48.49070893 449.05599126 43.08619446 449.05082882 37.6813736 449.06737137 C32.73176882 449.08229144 27.78275838 449.07404843 22.83320737 449.04748361 C21.04465167 449.04190742 19.25604556 449.04471971 17.46752238 449.05686255 C6.72707847 449.124178 -2.12744481 448.69104568 -10.51293945 441.19311523 C-11.03758789 440.47897461 -11.56223633 439.76483398 -12.1027832 439.02905273 C-12.65063477 438.32006836 -13.19848633 437.61108398 -13.76293945 436.88061523 C-15.37129333 433.76227776 -15.60566414 430.86433771 -16.0402832 427.40405273 C-15.20903183 427.40345565 -14.37778046 427.40285856 -13.52133965 427.40224338 C35.75545597 427.36634226 85.03219056 427.30969225 134.30892961 427.22613178 C140.22686754 427.21611444 146.14480574 427.20627029 152.06274414 427.1965332 C153.24088925 427.19459183 154.41903436 427.19265046 155.63288084 427.19065025 C174.70425755 427.15963697 193.77562223 427.14265147 212.8470194 427.13085851 C232.41892644 427.11844349 251.99077037 427.09093411 271.56263757 427.04943967 C283.63759054 427.02431441 295.71243885 427.01093475 307.78741834 427.01262316 C316.06991751 427.01265294 324.35231015 426.99800868 332.6347678 426.97188845 C337.41189963 426.95725427 342.18881297 426.94902954 346.96596336 426.95825005 C351.34485964 426.96655867 355.72331763 426.95632278 360.10214904 426.93171611 C361.68107729 426.92604906 363.26004732 426.92702213 364.83896276 426.93554029 C382.18063878 427.02103587 396.0030588 421.98234286 408.9597168 410.40405273 C409.6197168 410.40405273 410.2797168 410.40405273 410.9597168 410.40405273 C411.22268555 409.82397461 411.4856543 409.24389648 411.7565918 408.64624023 C413.01783648 406.29573878 414.46844598 404.54484823 416.2097168 402.52905273 C426.73106299 389.15222636 428.05092238 373.59727083 428.93798828 357.19140625 C429.01935234 355.7648715 429.1010129 354.33835364 429.18293667 352.91185093 C430.3082124 333.00856346 431.21509663 313.09280448 432.14886403 293.17984843 C432.41891457 287.43252537 432.69169743 281.68533198 432.96421814 275.93812561 C433.47812784 265.09274368 433.99005055 254.24726912 434.50103897 243.40174919 C435.41723898 223.95581186 436.33559079 204.50997647 437.25663942 185.06426817 C437.57872385 178.26219947 437.89951132 171.46007127 438.2192136 164.6578902 C438.41845889 160.42335725 438.61870048 156.18887181 438.81918144 151.9543972 C438.91110921 150.00830326 439.00262504 148.0621898 439.09367371 146.11605453 C439.61999207 134.87104116 440.2277212 123.63769471 440.9597168 112.40405273 C433.3697168 112.40405273 425.7797168 112.40405273 417.9597168 112.40405273 C417.93393555 110.57358398 417.9081543 108.74311523 417.8815918 106.85717773 C417.82531682 104.45611202 417.76796936 102.05507128 417.7097168 99.65405273 C417.69553711 98.44749023 417.68135742 97.24092773 417.66674805 95.99780273 C417.63452148 94.83764648 417.60229492 93.67749023 417.5690918 92.48217773 C417.54814453 91.41386719 417.52719727 90.34555664 417.50561523 89.24487305 C416.83367907 85.74816051 415.73238996 84.57457334 412.9597168 82.40405273 C409.68149774 81.31131305 407.27785233 81.27422039 403.82611275 81.26703835 C402.53436673 81.2619638 401.24262072 81.25688926 399.91173089 81.25166094 C398.46980997 81.25105925 397.027889 81.25056017 395.58596802 81.25015259 C394.06076504 81.24613844 392.53556313 81.24170029 391.01036251 81.23687303 C386.80821207 81.22489688 382.60607313 81.2192567 378.40390897 81.21469188 C373.87620873 81.20873992 369.34852226 81.19712925 364.8208313 81.18640137 C353.88240737 81.16187101 342.94397888 81.14725082 332.0055359 81.1343413 C328.91758543 81.13063032 325.82963541 81.12665703 322.74168539 81.12258863 C303.57657983 81.09735696 284.41147357 81.07529828 265.24635506 81.06286049 C260.80657066 81.05993068 256.36678629 81.05696903 251.92700195 81.05395508 C250.82348254 81.05320903 249.71996314 81.05246298 248.58300374 81.05169432 C230.69364506 81.03903184 212.80438557 81.0057968 194.91507329 80.96415325 C176.56016207 80.92177497 158.2053017 80.89817036 139.85034168 80.89293993 C129.53988098 80.88952152 119.22957539 80.87771561 108.91916275 80.84483719 C100.14134699 80.81689215 91.36371814 80.80581297 82.58586134 80.81703265 C78.10518211 80.82223323 73.62489464 80.81924221 69.14427185 80.79456711 C65.04460488 80.77217774 60.94561343 80.77273325 56.84593545 80.79177098 C55.36074163 80.79458554 53.87550299 80.78889204 52.39038159 80.77395804 C50.37534126 80.75492984 48.36006635 80.76959486 46.34500313 80.78602028 C45.22455577 80.78466375 44.10410841 80.78330722 42.9497081 80.78190958 C38.98278441 81.60732817 37.47459248 83.29761236 34.9597168 86.40405273 C34.19077336 89.37801469 34.19077336 89.37801469 34.25268555 92.57983398 C34.22368164 93.73676758 34.19467773 94.89370117 34.16479492 96.08569336 C34.15899414 97.28387695 34.15319336 98.48206055 34.1472168 99.71655273 C34.12208008 100.93407227 34.09694336 102.1515918 34.07104492 103.40600586 C34.01222779 106.4056796 33.97590641 109.40389571 33.9597168 112.40405273 C32.65824707 112.42910889 31.35677734 112.45416504 30.01586914 112.47998047 C25.17397709 112.57435743 20.33221838 112.67450358 15.49047852 112.77636719 C13.39741135 112.81960167 11.30431153 112.86128458 9.21118164 112.90136719 C6.19757254 112.95934874 3.18412608 113.02296215 0.1706543 113.08764648 C-0.76082428 113.10435898 -1.69230286 113.12107147 -2.65200806 113.13829041 C-3.53246796 113.15823563 -4.41292786 113.17818085 -5.32006836 113.19873047 C-6.47256577 113.22204689 -6.47256577 113.22204689 -7.64834595 113.24583435 C-10.48914118 113.43374314 -13.24001212 113.89972466 -16.0402832 114.40405273 C-16.15624316 101.11278031 -16.24503269 87.82162867 -16.29934406 74.529953 C-16.3254137 68.35775863 -16.36076478 62.1859109 -16.41748047 56.01391602 C-16.47189246 50.05518191 -16.50172355 44.09678079 -16.51466942 38.13781738 C-16.52389267 35.86684936 -16.54190368 33.59589913 -16.56893349 31.32507324 C-16.60534466 28.13876266 -16.61022333 24.95381986 -16.60791016 21.76733398 C-16.62588654 20.83297012 -16.64386292 19.89860626 -16.66238403 18.93592834 C-16.61258453 12.57702432 -15.24997505 8.25279632 -11.0402832 3.40405273 C-7.3963459 0.44885541 -4.63186811 0.02386999 0 0 Z " fill="#07A9F1" transform="translate(30.040283203125,31.595947265625)"/>
<path d="M0 0 C1.28714722 -0.00384115 2.57429444 -0.00768229 3.90044612 -0.01163983 C5.34756265 -0.01085944 6.79467912 -0.00998063 8.24179554 -0.00901413 C9.76455934 -0.0115955 11.28732247 -0.01460802 12.81008464 -0.01801753 C17.0148273 -0.02611783 21.21955292 -0.02787878 25.42430246 -0.028615 C29.95137232 -0.03046035 34.47843322 -0.03800512 39.00549793 -0.04475021 C48.91461525 -0.05835635 58.82372854 -0.06436202 68.73285365 -0.06876087 C74.91652783 -0.0715199 81.10020044 -0.07575666 87.28387356 -0.08026505 C104.39343861 -0.09246154 121.50300241 -0.10275955 138.61257172 -0.10614014 C140.25652922 -0.10646949 140.25652922 -0.10646949 141.93369799 -0.10680549 C143.03234789 -0.10702377 144.13099779 -0.10724204 145.26294011 -0.10746694 C147.48935648 -0.10791041 149.71577285 -0.10835697 151.94218922 -0.10880661 C153.59877137 -0.10913875 153.59877137 -0.10913875 155.28881983 -0.10947761 C173.18406691 -0.11342563 191.07927326 -0.13087808 208.97450461 -0.15416613 C227.33274833 -0.17786447 245.69097161 -0.19034132 264.04923087 -0.19150805 C274.36250258 -0.19242576 284.67572126 -0.19820193 294.98897839 -0.21632767 C303.77154262 -0.23170832 312.55403746 -0.23686124 321.3366126 -0.22858956 C325.81933001 -0.22467559 330.30190758 -0.2256489 334.78460789 -0.23964691 C338.88735156 -0.25234144 342.98984969 -0.25122765 347.09259281 -0.2390562 C348.57785733 -0.23709143 350.06313897 -0.24021347 351.54837938 -0.24890056 C353.56601262 -0.25995558 355.58372653 -0.2507352 357.60136414 -0.24050903 C358.72251592 -0.24110612 359.8436677 -0.24170321 360.99879378 -0.24231839 C364.62618504 0.19269762 367.0087769 1.22920311 370.11528492 3.13142776 C375.49012342 11.19368551 372.11528492 22.44179986 372.11528492 32.13142776 C245.39528492 32.13142776 118.67528492 32.13142776 -11.88471508 32.13142776 C-11.88471508 0.01322301 -11.88471508 0.01322301 0 0 Z " fill="#F8FDFE" transform="translate(75.88471508026123,111.86857223510742)"/>
<path d="M0 0 C2.57675739 2.57675739 2.9826767 4.83306936 4.0625 8.3125 C9.17313172 23.57104628 19.90581751 35.41082482 34 43 C43.25839132 47.10074867 51.06251873 49.14806884 61.11140442 49.15390015 C62.03135388 49.1582824 62.95130333 49.16266465 63.89913005 49.1671797 C66.98329258 49.18053918 70.06742656 49.18674027 73.15161133 49.19287109 C75.36281462 49.20077456 77.57401663 49.20904366 79.78521729 49.21765137 C87.05080945 49.24385201 94.3164073 49.25918111 101.58203125 49.2734375 C104.086916 49.27879875 106.59180072 49.28417626 109.09668541 49.28956985 C119.5221303 49.31119929 129.94757456 49.33008385 140.37303638 49.34119225 C143.07640907 49.34412157 145.77978171 49.34708328 148.4831543 49.35009766 C149.49092191 49.35121673 149.49092191 49.35121673 150.51904847 49.35235842 C161.38146623 49.36498857 172.24371943 49.39818207 183.10606042 49.43989949 C194.27984944 49.48245799 205.45357962 49.50549678 216.62745494 49.51111281 C222.8923125 49.51475577 229.15689123 49.5266644 235.42167091 49.55921555 C241.32411417 49.58944357 247.22611204 49.59555547 253.12861633 49.58383179 C255.28435622 49.58361226 257.44011766 49.5918163 259.59578514 49.60948563 C280.14713125 49.76864374 298.1839142 46.13494559 313.6484375 31.48046875 C322.19222383 22.46833533 328.05054282 12.06596118 331 0 C331.33 0 331.66 0 332 0 C332.73868858 20.58068453 329.40690099 35.25139548 315.625 51.375 C304.37285194 63.22138415 288.78792459 70.76081317 272.3387785 71.25447559 C270.71154755 71.26656199 269.08421375 71.26814371 267.45695496 71.26069641 C266.09807418 71.26643473 266.09807418 71.26643473 264.71174127 71.27228898 C261.70514639 71.28252876 258.69874572 71.2786441 255.69213867 71.2746582 C253.5245903 71.2790097 251.35704347 71.2841943 249.1894989 71.29014587 C243.32161932 71.30350062 237.45380428 71.30411842 231.58591247 71.30158257 C226.67810753 71.30051038 221.77031552 71.30540263 216.86251336 71.310188 C205.27869367 71.32127119 193.69490641 71.32172739 182.11108398 71.31567383 C170.18230608 71.30963559 158.25364618 71.32194404 146.32488841 71.3432439 C136.06383903 71.36088859 125.80282711 71.36685669 115.54176313 71.36360615 C109.42192042 71.36179759 103.30216189 71.36438674 97.18233299 71.37832069 C91.42435553 71.39094094 85.66656131 71.38891524 79.9085865 71.37590981 C77.8032004 71.37355354 75.69780122 71.37624439 73.59243011 71.38453293 C59.63971406 71.43547417 46.62049697 71.06365289 33.9375 64.5 C33.26976562 64.15743164 32.60203125 63.81486328 31.9140625 63.46191406 C17.56331058 55.7171727 6.83811551 42.6160956 2 27 C0.16537136 20.84088956 -0.2529339 15.4065362 -0.125 9 C-0.11597656 8.12988281 -0.10695313 7.25976562 -0.09765625 6.36328125 C-0.07434619 4.2420658 -0.03848579 2.12099438 0 0 Z " fill="#08A9F1" transform="translate(90,366)"/>
<path d="M0 0 C2.3125 1.875 2.3125 1.875 3.3125 2.875 C3.672888 6.69511276 3.85298663 9.03184085 1.75 12.3125 C-1.66283641 14.50021565 -3.67781604 14.34279646 -7.6875 13.875 C-8.89019531 13.38 -10.09289062 12.885 -11.33203125 12.375 C-15.96070571 10.58919653 -20.20125621 10.37529911 -25.125 10.4375 C-25.96466309 10.44507324 -26.80432617 10.45264648 -27.66943359 10.46044922 C-33.80697887 10.62426058 -38.49232265 11.45404477 -43.6875 14.875 C-44.45191406 15.31070312 -45.21632812 15.74640625 -46.00390625 16.1953125 C-51.58267914 19.55911955 -55.26129344 23.3596431 -58.6875 28.875 C-59.0896875 29.514375 -59.491875 30.15375 -59.90625 30.8125 C-62.83744876 36.00490924 -63.44550886 40.97041614 -63.6875 46.875 C-63.275 46.38773437 -62.8625 45.90046875 -62.4375 45.3984375 C-59.8531938 43.14870666 -57.86366731 43.44378612 -54.5625 43.6015625 C-52.6875 43.875 -52.6875 43.875 -50.6875 44.875 C-49.04819548 48.15360904 -49.13678729 51.33555452 -49.6875 54.875 C-51.10560598 58.33609166 -52.97654181 61.44655123 -54.9375 64.625 C-55.42863281 65.46160156 -55.91976562 66.29820312 -56.42578125 67.16015625 C-61.48158804 75.61346521 -61.48158804 75.61346521 -64.6875 77.875 C-69.19854142 78.27062284 -71.87577862 77.62179524 -75.76171875 75.35546875 C-76.67630859 74.82759766 -77.59089844 74.29972656 -78.53320312 73.75585938 C-79.47099609 73.19705078 -80.40878906 72.63824219 -81.375 72.0625 C-82.32439453 71.51529297 -83.27378906 70.96808594 -84.25195312 70.40429688 C-92.50091667 65.58802305 -92.50091667 65.58802305 -94.6875 62.875 C-95.18780235 58.94405293 -95.2871142 56.7744213 -93.0625 53.4375 C-89.97197892 51.40426245 -88.33034739 51.35459323 -84.6875 51.875 C-82.99707749 52.83429637 -81.32614052 53.82970816 -79.6875 54.875 C-79.75710937 53.35132813 -79.75710937 53.35132813 -79.828125 51.796875 C-80.37378666 34.72307987 -74.89655086 21.73045789 -63.171875 9.19921875 C-47.79416655 -5.18715944 -18.84968742 -12.12397735 0 0 Z " fill="#81D263" transform="translate(281.6875,286.125)"/>
<path d="M0 0 C5.14180077 0.7695212 9.09600835 3.20608856 13.5703125 5.765625 C14.46363281 6.25675781 15.35695313 6.74789063 16.27734375 7.25390625 C20.52822584 9.63668769 24.24190984 11.76682893 27.4453125 15.515625 C28.01315195 19.49050117 28.06871769 21.58051721 25.8203125 24.953125 C22.72979142 26.98636255 21.08815989 27.03603177 17.4453125 26.515625 C15.75488999 25.55632863 14.08395302 24.56091684 12.4453125 23.515625 C12.49171875 24.53140625 12.538125 25.5471875 12.5859375 26.59375 C13.10158704 42.66319358 8.45544109 56.35964517 -2.7421875 68.328125 C-14.80405477 79.59403149 -28.92688101 84.14605911 -45.15649414 83.99072266 C-53.38084808 83.70661004 -62.36346558 82.69214454 -68.8671875 77.140625 C-70.9504547 73.89998714 -71.27861605 72.29614077 -70.5546875 68.515625 C-69.1171875 66.078125 -69.1171875 66.078125 -66.5546875 64.515625 C-62.58451236 64.34526301 -58.92639332 64.88583311 -55.30859375 66.546875 C-46.4929712 69.64797343 -34.3467307 68.46375501 -25.94140625 64.76953125 C-15.76171715 59.42144581 -8.9824053 53.44291479 -5.29394531 42.31982422 C-3.2640953 36.03670659 -3.2640953 36.03670659 -2.5546875 29.515625 C-3.0496875 30.340625 -3.5446875 31.165625 -4.0546875 32.015625 C-6.70268346 34.66362096 -7.10661382 34.92942667 -10.6171875 35.078125 C-14.5546875 34.515625 -14.5546875 34.515625 -16.5546875 32.953125 C-17.9019024 29.66928869 -18.20330755 26.97213961 -17.5546875 23.515625 C-15.92441319 19.90257468 -13.86157389 16.60970872 -11.7421875 13.265625 C-11.19498047 12.3684375 -10.64777344 11.47125 -10.08398438 10.546875 C-4.07959589 0.82340467 -4.07959589 0.82340467 0 0 Z " fill="#04C0FA" transform="translate(299.5546875,307.484375)"/>
<path d="M0 0 C0.92065247 0.00015106 1.84130493 0.00030212 2.78985596 0.00045776 C3.77540466 0.01078033 4.76095337 0.02110291 5.77636719 0.03173828 C7.2994046 0.03598312 7.2994046 0.03598312 8.85321045 0.04031372 C12.09334135 0.05150077 15.33319495 0.07660287 18.57324219 0.10205078 C20.77115486 0.11208248 22.96907187 0.121208 25.16699219 0.12939453 C30.55251556 0.15143532 35.93783187 0.18595526 41.32324219 0.22705078 C41.32324219 5.17705078 41.32324219 10.12705078 41.32324219 15.22705078 C40.02177246 15.25210693 38.72030273 15.27716309 37.37939453 15.30297852 C32.53750248 15.39735548 27.69574377 15.49750163 22.85400391 15.59936523 C20.76093675 15.64259972 18.66783692 15.68428263 16.57470703 15.72436523 C13.56109793 15.78234679 10.54765147 15.8459602 7.53417969 15.91064453 C6.60270111 15.92735703 5.67122253 15.94406952 4.71151733 15.96128845 C3.83105743 15.98123367 2.95059753 16.00117889 2.04345703 16.02172852 C1.27512543 16.0372728 0.50679382 16.05281708 -0.28482056 16.0688324 C-3.10249189 16.25521162 -5.89135026 16.76281619 -8.67675781 17.22705078 C-8.67675781 12.27705078 -8.67675781 7.32705078 -8.67675781 2.22705078 C-4.9611715 0.36925762 -3.87546104 -0.02129374 0 0 Z " fill="#0290CF" transform="translate(22.6767578125,128.77294921875)"/>
<path d="M0 0 C6.47785325 -0.04943185 12.95559673 -0.08573487 19.43359375 -0.10986328 C21.63738925 -0.11992183 23.8411714 -0.13357026 26.04492188 -0.15087891 C29.21227309 -0.1751334 32.37944787 -0.1864846 35.546875 -0.1953125 C36.53242371 -0.20563507 37.51797241 -0.21595764 38.53338623 -0.22659302 C39.91436493 -0.22681961 39.91436493 -0.22681961 41.32324219 -0.22705078 C42.53569611 -0.23371262 42.53569611 -0.23371262 43.77264404 -0.24050903 C46 0 46 0 50 2 C50 6.95 50 11.9 50 17 C48.02 16.67 46.04 16.34 44 16 C42.42854132 15.89605344 40.85435573 15.82653321 39.27978516 15.79467773 C38.39932526 15.77473251 37.51886536 15.75478729 36.61172485 15.73423767 C35.68024628 15.71752518 34.7487677 15.70081268 33.7890625 15.68359375 C32.82092621 15.66281265 31.85278992 15.64203156 30.85531616 15.62062073 C27.77861268 15.55551016 24.70182764 15.49642002 21.625 15.4375 C19.53254383 15.39427814 17.44009574 15.3506627 15.34765625 15.30664062 C10.23185331 15.19986844 5.11596875 15.09849364 0 15 C0 10.05 0 5.1 0 0 Z " fill="#0290CF" transform="translate(448,129)"/>
</svg>
